# xmcd
#
# Track frame offsets:
#	150
#	7274
#	9923
#	27962
#	44303
#	62766
#	75631
#	78926
#	90552
#	92239
#	102730
#	121208
#	138031
#	152599
#	165448
#	180639
#	184304
#	199833
#	201574
#	213809
#	215091
#	232331
#	235686
#	257041
#	273126
#	303198
#
# Disc length: 4238 seconds
#
# Revision: 1
# Processed by: cddbd v1.5.1PL2 Copyright (c) Steve Scherf et al.
# Submitted via: audiograbber 1.83.01
#
DISCID=60108c1a
DTITLE=Calvin Frazier (1-13) - Sampson Pittman (14-26) - Detroit Blues
DYEAR=1938
DGENRE=Blues
TTITLE0=I'm in the highway man
TTITLE1=This old world's in a tangle (1)
TTITLE2=Lilly Mae (1)
TTITLE3=Welfare blues
TTITLE4=Blues
TTITLE5=She's a double-crossin' woman
TTITLE6=C. Frazier interview (1)
TTITLE7=The dirty dozens
TTITLE8=C. Frazier interview (2)
TTITLE9=Boogie-woogie
TTITLE10=Lilly Mae (2)
TTITLE11=This old world's in a tangle (2)
TTITLE12=Highway 51 blues
TTITLE13=John Henry
TTITLE14=Cotton farmer blues
TTITLE15=Sampson Pittman blues
TTITLE16=Joe Louis
TTITLE17=S. Pitman interview (1)
TTITLE18=Welfare blues
TTITLE19=S. Pittman interview (2)
TTITLE20=I been down in the circle before
TTITLE21=S. Pittman interview (3)
TTITLE22=Levee camp story
TTITLE23=Highway 61 blues
TTITLE24=Brother in low-down and sister do-dad (1)
TTITLE25=Brother in low-down and sister do-dad (2)
EXTD=
EXTT0=
EXTT1=
EXTT2=
EXTT3=
EXTT4=
EXTT5=
EXTT6=
EXTT7=
EXTT8=
EXTT9=
EXTT10=
EXTT11=
EXTT12=
EXTT13=
EXTT14=
EXTT15=
EXTT16=
EXTT17=
EXTT18=
EXTT19=
EXTT20=
EXTT21=
EXTT22=
EXTT23=
EXTT24=
EXTT25=
PLAYORDER=
